<svg xmlns="http://www.w3.org/2000/svg" viewBox="0 0 17.83 18.13"><defs><style>.cls-1{fill:#fff;}</style></defs><title>Asset 8</title><g id="Layer_2" data-name="Layer 2"><g id="Layer_5" data-name="Layer 5"><g id="aMdsZt"><path class="cls-1" d="M2.2,2.74l.42.15c.6.25,1.2.51,1.81.74a.61.61,0,0,0,.44,0c.41-.22.8-.46,1.19-.71a.43.43,0,0,0,.17-.26c.12-.71.23-1.43.33-2.14A.48.48,0,0,1,7.08,0H10.6c.3,0,.42.15.45.46.08.73.2,1.45.32,2.18a.5.5,0,0,0,.23.28c.39.24.79.48,1.2.69a.53.53,0,0,0,.38,0c.64-.24,1.28-.51,1.91-.76.43-.17.58-.11.81.29L17.51,6c.22.38.19.51-.15.79-.52.43-1.05.85-1.57,1.28a.53.53,0,0,0-.16.34c0,.42,0,.85,0,1.27a.52.52,0,0,0,.24.56c.59.38,1.15.8,1.73,1.19a.45.45,0,0,1,.16.67L16,15.15a.45.45,0,0,1-.63.21c-.65-.26-1.3-.51-1.94-.78a.48.48,0,0,0-.52.06,11.07,11.07,0,0,1-1,.6.49.49,0,0,0-.31.42c-.07.62-.18,1.24-.28,1.86s-.21.6-.71.6H7.27c-.47,0-.57-.1-.64-.56-.09-.63-.18-1.27-.3-1.89a.69.69,0,0,0-.28-.39,11,11,0,0,0-1.1-.64.62.62,0,0,0-.44,0c-.64.24-1.28.5-1.91.76-.43.17-.57.11-.81-.3L.22,12.3c-.26-.46-.25-.55.17-.89s1-.81,1.51-1.24a.53.53,0,0,0,.15-.35c0-.41,0-.83,0-1.24A.59.59,0,0,0,1.82,8C1.3,7.6.81,7.21.32,6.83S-.08,6.37.15,6C.68,5,1.2,4.1,1.74,3.19A2.38,2.38,0,0,1,2.2,2.74ZM8.88,5.91A3.25,3.25,0,0,0,5.65,9.06,3.25,3.25,0,0,0,8.82,12.3,3.25,3.25,0,0,0,12,9.12,3.25,3.25,0,0,0,8.88,5.91Z"/></g></g></g></svg>