<svg xmlns="http://www.w3.org/2000/svg" viewBox="0 0 15.4 16.58"><title>Asset 2</title><g id="Layer_2" data-name="Layer 2"><g id="Layer_1-2" data-name="Layer 1"><path d="M15.05,2.72a1.18,1.18,0,0,0-.84-.35H13V1.48a1.44,1.44,0,0,0-.44-1,1.46,1.46,0,0,0-1-.43H11A1.47,1.47,0,0,0,9.91.43a1.43,1.43,0,0,0-.43,1.05v.89H5.92V1.48a1.43,1.43,0,0,0-.43-1,1.47,1.47,0,0,0-1-.43H3.85A1.47,1.47,0,0,0,2.8.43a1.43,1.43,0,0,0-.43,1.05v.89H1.18a1.16,1.16,0,0,0-.83.35A1.14,1.14,0,0,0,0,3.55V15.4a1.14,1.14,0,0,0,.35.83,1.16,1.16,0,0,0,.83.35h13a1.18,1.18,0,0,0,.84-.35,1.14,1.14,0,0,0,.35-.83V3.55a1.14,1.14,0,0,0-.35-.83ZM3.85,15.4H1.18V12.73H3.85Zm0-3.26H1.18v-3H3.85Zm0-3.55H1.18V5.92H3.85ZM3.64,4.35a.25.25,0,0,1-.09-.2V1.48a.31.31,0,0,1,.3-.3h.59a.31.31,0,0,1,.3.3V4.15a.25.25,0,0,1-.09.2.29.29,0,0,1-.21.09H3.85a.29.29,0,0,1-.21-.09ZM7.4,15.4h-3V12.73h3Zm0-3.26h-3v-3h3Zm0-3.55h-3V5.92h3ZM11,15.4H8V12.73h3Zm0-3.26H8v-3h3Zm0-3.55H8V5.92h3Zm-.21-4.24a.25.25,0,0,1-.09-.2V1.48a.31.31,0,0,1,.3-.3h.59a.29.29,0,0,1,.21.09.32.32,0,0,1,.08.21V4.15a.28.28,0,0,1-.08.2.29.29,0,0,1-.21.09H11a.29.29,0,0,1-.21-.09ZM14.21,15.4H11.55V12.73h2.66Zm0-3.26H11.55v-3h2.66Zm0-3.55H11.55V5.92h2.66Z" style="fill:#f78e1e"/></g></g></svg>