<svg xmlns="http://www.w3.org/2000/svg" viewBox="0 0 14.21 17.94"><title>Asset 3</title><g id="Layer_2" data-name="Layer 2"><g id="Layer_1-2" data-name="Layer 1"><path d="M7.11,17.94h6a1.12,1.12,0,0,0,1.11-1.12V1.12A1.12,1.12,0,0,0,13.1,0h-8V.37a.49.49,0,0,1,0,.12V3.55A1.57,1.57,0,0,1,3.55,5.12H0v11.7a1.12,1.12,0,0,0,1.12,1.12Zm.22-3.8H3.43a.53.53,0,1,1,0-1.06h3.9a.53.53,0,0,1,.53.53.53.53,0,0,1-.53.53Zm3.91-2.69H3.43a.53.53,0,1,1,0-1.06h7.81a.53.53,0,0,1,0,1.06ZM3.43,7.53h7.81a.53.53,0,1,1,0,1H3.43a.53.53,0,1,1,0-1Z" style="fill:#fff"/><path d="M4.74,0S0,4.88.09,4.86s1.56,0,2.85,0a1.8,1.8,0,0,0,1.8-1.8Z" style="fill:#fff"/></g></g></svg>