<svg xmlns="http://www.w3.org/2000/svg" xmlns:xlink="http://www.w3.org/1999/xlink" viewBox="0 0 36.12 38.75"><defs><radialGradient id="radial-gradient" cx="24.78" cy="32.8" r="34.91" gradientUnits="userSpaceOnUse"><stop offset="0" stop-color="#00c0f3"/><stop offset="0.11" stop-color="#06c1ed"/><stop offset="0.25" stop-color="#18c3db"/><stop offset="0.42" stop-color="#35c6bf"/><stop offset="0.61" stop-color="#5dcb96"/><stop offset="0.81" stop-color="#90d164"/><stop offset="1" stop-color="#c8d82c"/></radialGradient></defs><title>Asset 3</title><g id="Layer_2" data-name="Layer 2"><g id="Layer_1-2" data-name="Layer 1"><path d="M0,37.23V32.05H1.59l.94,3.53.93-3.53H5v5.18h-1V33.15L3,37.23H2L1,33.15v4.08Z" style="fill:#231f20"/><path d="M7.15,37.23V32.05H11v.87H8.2v1.15h2.6v.87H8.2v1.42h2.89v.87Z" style="fill:#231f20"/><path d="M12.8,35.54l1-.1a1.24,1.24,0,0,0,.37.76,1.14,1.14,0,0,0,.76.24,1.11,1.11,0,0,0,.76-.22.64.64,0,0,0,.26-.5.49.49,0,0,0-.11-.31.88.88,0,0,0-.38-.23L14.65,35a2.91,2.91,0,0,1-1.19-.51A1.39,1.39,0,0,1,13,33.4a1.33,1.33,0,0,1,.22-.74,1.41,1.41,0,0,1,.65-.52,2.59,2.59,0,0,1,1-.18,2.17,2.17,0,0,1,1.47.43,1.5,1.5,0,0,1,.52,1.14l-1.05,0a.91.91,0,0,0-.29-.57,1,1,0,0,0-.66-.18,1.26,1.26,0,0,0-.72.19.38.38,0,0,0-.16.32.41.41,0,0,0,.15.32,2.94,2.94,0,0,0,1,.34,4.91,4.91,0,0,1,1.12.38,1.4,1.4,0,0,1,.58.52,1.56,1.56,0,0,1-.74,2.24,2.87,2.87,0,0,1-1.13.19,2.25,2.25,0,0,1-1.51-.45A2,2,0,0,1,12.8,35.54Z" style="fill:#231f20"/><path d="M19,37.23V32.05H20v2h2v-2h1.05v5.18H22.08V35H20v2.27Z" style="fill:#231f20"/><path d="M25.23,37.23V32.05h.64v5.18Z" style="fill:#231f20"/><path d="M27.7,35.35a2,2,0,0,1,.58-1.54,1.76,1.76,0,0,1,1.18-.42,1.69,1.69,0,0,1,1.27.51,1.9,1.9,0,0,1,.49,1.4A2.43,2.43,0,0,1,31,36.44a1.44,1.44,0,0,1-.63.64,1.79,1.79,0,0,1-.91.23,1.7,1.7,0,0,1-1.27-.5A2,2,0,0,1,27.7,35.35Zm.66,0a1.6,1.6,0,0,0,.31,1.08,1,1,0,0,0,1.58,0,1.64,1.64,0,0,0,.32-1.1,1.58,1.58,0,0,0-.32-1.06,1,1,0,0,0-.79-.35,1,1,0,0,0-.79.35A1.6,1.6,0,0,0,28.36,35.35Z" style="fill:#231f20"/><path d="M32.94,37.54l.61.09a.61.61,0,0,0,.22.42,1,1,0,0,0,.65.18,1.12,1.12,0,0,0,.68-.18.83.83,0,0,0,.32-.5,3.6,3.6,0,0,0,0-.81,1.33,1.33,0,0,1-1,.49,1.42,1.42,0,0,1-1.2-.56,2.16,2.16,0,0,1-.42-1.34,2.46,2.46,0,0,1,.19-1,1.53,1.53,0,0,1,.57-.7,1.45,1.45,0,0,1,.86-.25,1.35,1.35,0,0,1,1.1.54v-.46h.59v3.25A3,3,0,0,1,35.94,38a1.28,1.28,0,0,1-.57.58,2,2,0,0,1-.95.21,1.83,1.83,0,0,1-1.09-.3A1,1,0,0,1,32.94,37.54Zm.52-2.26a1.58,1.58,0,0,0,.3,1.08.91.91,0,0,0,.73.34.94.94,0,0,0,.74-.34,1.59,1.59,0,0,0,.29-1,1.56,1.56,0,0,0-.3-1,.94.94,0,0,0-.74-.35.92.92,0,0,0-.72.34A1.51,1.51,0,0,0,33.46,35.28Z" style="fill:#231f20"/><path d="M16,28.5,12.1,19.33,8.2,28.5H0L12.1,0,24.19,28.5ZM24,0,19.89,9.72,24,19.39l0-.06,3.9,9.17h8.2Z" style="fill:url(#radial-gradient)"/></g></g></svg>