<svg xmlns="http://www.w3.org/2000/svg" viewBox="0 0 16.35 20.31"><title>Asset 5</title><g id="Layer_2" data-name="Layer 2"><g id="Layer_1-2" data-name="Layer 1"><g id="Icon_Notifications_" data-name="Icon [ Notifications ]"><path d="M13.93,2.42a1.67,1.67,0,0,0,.14-.67,1.75,1.75,0,0,0-3.39-.6c-.17,0-.34,0-.52,0a6.2,6.2,0,0,0-5.77,4c-1.1,1.91-1.49,4-3.1,5.33-1.23,1-1.85,2.07-.62,2.68,1,.5,10.72,4.13,12.37,4.74s2.25,0,2.06-1.85a22.33,22.33,0,0,1,1-7,.34.34,0,0,0,0-.1,6.1,6.1,0,0,0-2.21-6.45ZM6.24,17.53a2.78,2.78,0,0,0,5.08,1.57c-2.2-.85-3.23-1.27-5.07-1.87A2.81,2.81,0,0,0,6.24,17.53Z" style="fill:#666;fill-rule:evenodd"/></g></g></g></svg>