<svg xmlns="http://www.w3.org/2000/svg" width="12.129" height="13.697" viewBox="0 0 12.129 13.697">
  <g id="Group_657" data-name="Group 657" transform="translate(-395.104 -362.803)">
    <path id="Path_648" data-name="Path 648" d="M456.22,878.42c0-.369-.256-.589-.708-.589a1.507,1.507,0,0,0-.375.036v1.184a1.425,1.425,0,0,0,.3.024c.482,0,.779-.244.779-.655Zm0,0" transform="translate(-57.91 -508.599)" fill="#1a6ad8"/>
    <path id="Path_649" data-name="Path 649" d="M462.141,877.854a1.883,1.883,0,0,0-.41.036v2.624a1.618,1.618,0,0,0,.315.018,1.244,1.244,0,0,0,1.357-1.4,1.151,1.151,0,0,0-1.261-1.274Zm0,0" transform="translate(-61.034 -508.61)" fill="#1a6ad8"/>
    <path id="Path_650" data-name="Path 650" d="M462.467,870.514h-.328v-1.587c0-.009,0-.02,0-.03a.267.267,0,0,0-.064-.174l-2.641-3.016,0,0a.263.263,0,0,0-.053-.044l-.018-.01a.251.251,0,0,0-.053-.023l-.014,0a.3.3,0,0,0-.062-.008h-6.49a.539.539,0,0,0-.538.537v4.362h-.328a.767.767,0,0,0-.768.768v3.991a.768.768,0,0,0,.768.768h.328v2.733a.539.539,0,0,0,.538.538H461.6a.539.539,0,0,0,.538-.538v-2.732h.328a.768.768,0,0,0,.768-.767v-3.992a.767.767,0,0,0-.768-.768Zm-9.728-4.362h6.221V868.9a.269.269,0,0,0,.269.268H461.6v1.346h-8.861Zm6.593,7.147a2.033,2.033,0,0,1-.667,1.625,2.877,2.877,0,0,1-1.85.517,7.927,7.927,0,0,1-1.029-.059v-3.939a8.08,8.08,0,0,1,1.226-.083,2.58,2.58,0,0,1,1.642.428,1.775,1.775,0,0,1,.679,1.511Zm-7,2.1v-3.957a7.394,7.394,0,0,1,1.226-.083,1.926,1.926,0,0,1,1.226.321,1.174,1.174,0,0,1,.428.928,1.279,1.279,0,0,1-.369.952,1.86,1.86,0,0,1-1.3.423,2.326,2.326,0,0,1-.309-.018V875.4Zm9.272,3.229h-8.861v-2.588H461.6Zm.778-6.5h-1.541v.916h1.44v.738h-1.44V875.4h-.91v-4.01h2.451Zm0,0" transform="translate(-56 -502.812)" fill="#1a6ad8"/>
  </g>
</svg>
