<svg xmlns="http://www.w3.org/2000/svg" viewBox="0 0 19 18.99"><title>Asset 6</title><g id="Layer_2" data-name="Layer 2"><g id="Layer_1-2" data-name="Layer 1"><g id="Rounded_Rectangle_copy_5" data-name="Rounded Rectangle  copy 5"><path d="M16.12,13.55a2.81,2.81,0,0,0-2.88,2.72,2.88,2.88,0,0,0,5.76,0A2.81,2.81,0,0,0,16.12,13.55Zm-6.62,0a2.81,2.81,0,0,0-2.88,2.72A2.81,2.81,0,0,0,9.5,19a2.81,2.81,0,0,0,2.88-2.72A2.81,2.81,0,0,0,9.5,13.55Zm-6.62,0A2.81,2.81,0,0,0,0,16.27,2.81,2.81,0,0,0,2.88,19a2.81,2.81,0,0,0,2.88-2.72A2.81,2.81,0,0,0,2.88,13.55ZM16.12,6.77A2.81,2.81,0,0,0,13.24,9.5,2.88,2.88,0,0,0,19,9.5,2.81,2.81,0,0,0,16.12,6.77Zm-6.62,0A2.81,2.81,0,0,0,6.62,9.5,2.81,2.81,0,0,0,9.5,12.22,2.81,2.81,0,0,0,12.38,9.5,2.81,2.81,0,0,0,9.5,6.77Zm-6.62,0A2.81,2.81,0,0,0,0,9.5a2.81,2.81,0,0,0,2.88,2.72A2.81,2.81,0,0,0,5.76,9.5,2.81,2.81,0,0,0,2.88,6.77ZM16.12,5.44A2.8,2.8,0,0,0,19,2.72a2.88,2.88,0,0,0-5.76,0A2.8,2.8,0,0,0,16.12,5.44ZM9.5,0A2.81,2.81,0,0,0,6.62,2.72,2.8,2.8,0,0,0,9.5,5.44a2.8,2.8,0,0,0,2.88-2.72A2.81,2.81,0,0,0,9.5,0ZM2.88,0A2.81,2.81,0,0,0,0,2.72,2.8,2.8,0,0,0,2.88,5.44,2.8,2.8,0,0,0,5.76,2.72,2.81,2.81,0,0,0,2.88,0Z" style="fill:#666;fill-rule:evenodd"/></g></g></g></svg>