<svg xmlns="http://www.w3.org/2000/svg" width="14" height="14" viewBox="0 0 10.66 12.495">
  <g id="Group_1488" data-name="Group 1488" transform="translate(-949.752 -623.687)">
    <g id="Group_724" data-name="Group 724" transform="translate(950.152 624.087)">
      <path id="Path_12" data-name="Path 12" d="M8.382,1H4.468A1.442,1.442,0,0,0,3,2.468V10.3a1.442,1.442,0,0,0,1.468,1.468h5.871A1.442,1.442,0,0,0,11.807,10.3V4.425Z" transform="translate(-3 -1)" fill="none" stroke="#fff" stroke-linecap="round" stroke-linejoin="round" stroke-miterlimit="10" stroke-width="0.8"/>
      <path id="Path_13" data-name="Path 13" d="M14,2.957a1.442,1.442,0,0,0,1.468,1.468h1.957L14,1Z" transform="translate(-8.618 -1)" fill="none" stroke="#fff" stroke-linecap="round" stroke-linejoin="round" stroke-miterlimit="10" stroke-width="0.8"/>
    </g>
    <g id="Group_725" data-name="Group 725" transform="translate(955.115 630.885)">
      <ellipse id="Ellipse_12" data-name="Ellipse 12" cx="2.448" cy="2.448" rx="2.448" ry="2.448" transform="translate(4.896 4.897) rotate(180)" fill="#1a6ad8" stroke="#fff" stroke-linecap="round" stroke-linejoin="round" stroke-miterlimit="10" stroke-width="0.8"/>
      <g id="Group_1487" data-name="Group 1487" transform="translate(1.493 1.473)">
        <line id="Line_35" data-name="Line 35" y2="1.94" transform="translate(0.97 0)" fill="none" stroke="#fff" stroke-linecap="round" stroke-linejoin="round" stroke-miterlimit="10" stroke-width="0.8"/>
        <line id="Line_36" data-name="Line 36" x1="1.94" transform="translate(0 0.97)" fill="none" stroke="#fff" stroke-linecap="round" stroke-linejoin="round" stroke-miterlimit="10" stroke-width="0.8"/>
      </g>
    </g>
  </g>
</svg>
